<?xml version="1.0" encoding="UTF-8"?>
<svg id="Layer_2" data-name="Layer 2" xmlns="http://www.w3.org/2000/svg" viewBox="0 0 784.79004 867.36035">
  <defs>
    <style>
      .cls-1 {
        fill: #dcdcdc;
      }

      .cls-1, .cls-2 {
        stroke-width: 0px;
      }

      .cls-2 {
        fill: #202020;
      }
    </style>
  </defs>
  <g id="Layer_1-2" data-name="Layer 1">
    <path class="cls-2" d="M522.79004,772.80029c-23.81006,8.08984-49,13.17969-75.12988,14.81006-9.14014-2.28027-18.12988-4.90039-26.97021-7.87012-.11963-2.03027.93994-4.59033,2.09033-8.08008,2.10986-6.39014,5.68994-12.35986,8.98975-18.31006,7.73975-13.93994,15.6499-27.79004,23.58008-41.62012,3.31982-5.79004,7.22021-11.27002,10.25-17.19971,4.79004-9.39014,9.52002-18.8501,13.3999-28.64014,3.02002-7.58008,7.81006-12.52002,15.75-13.16992,8.25977-.66992,16.5498,1.87988,18.27002,10.77002,2.77002,14.35986,4.08008,29.04004,5.29004,43.65967,1.7998,21.8501,3.37012,43.74023,4.47998,65.65039Z"/>
    <path class="cls-2" d="M667.87012,331.8999c-20.1499,5.23047-40.2998,10.53027-60.12012,16.86035-25.66016,8.19971-50.71973,18.37012-78.31982,17.5-2.37012-.07031-4.70996-.68994-7.06006-1.07031.35986-2.16992,0-5.11963,1.27979-6.32959,1.88037-1.77002,4.91016-3.08008,7.5-3.14014,3.01025-.07031,6.16016,1.14014,9.07031,2.27002,8.62988,3.33008,12.97998-1.14014,15.94971-8.37012,2.03027-4.95996,3.77002-10.06982,6.12012-14.89014.71973-1.5,2.87988-2.83008,4.58008-3.22998,5.12012-1.21973,6.33984-4.87988,2.72998-8.56006-7.27979-7.42969-8.8501-15.73975-4.22021-22.90967,5.49023-8.5,1.7002-15.25-2.54004-19.78027-10.33984-11-21.75-21.54004-37.01953-25.6499-31.23047-8.42969-56.23047,3.08008-78.34033,24.5-8.06982,7.81006-16.18018,16.62012-26.02979,21.32031-16.02002,7.6499-33.07031,14.63965-50.41992,17.69971-28.52051,5.01025-57.04004,3.27002-82.44043-13.72998-1.35986-.91016-2.95996-1.5-4.5-2.24023,3.08008,14.87012,11.77002,25.33008,24.41016,31.49023,12.1001,5.8999,25.18018,9.75977,38.2002,14.6499-20.82031,18.62012-45.66016,25.62012-74.31006,26.07031,18.79004,10.46973,37.6001,9.0498,56.73975,7.38965-24.00977,20.7002-49.75,36.5-83.02979,32.18994,9.93994,16.11035,25.81982,18.83008,42.87988,21.03027-16.93018,17.89014-37.62988,21.47998-62.58008,21.58984,5.51025,2.54004,8.14014,4.11035,11,5,25.6001,7.99023,51.18994,6.62988,76.67041-.58984,15.62988-4.43994,31.25977-8.8999,46.75977-13.74023,8.77979-2.73975,12.35986-.46973,10.92969,8.70996-.59961,3.88037-2.75,7.81006-5.09961,11.06006-9.68018,13.47021-22.47998,22.82031-40.11035,27.6001,15.06006,2.77002,26.69043-2.02979,38.43018-7.85986,24.49023-12.18018,39.22998-34.56006,57.27002-53.5,9.50977-10,18.95996-20.1001,33.03027-23.93018,4.43994-1.20996,6.5-.70996,7.66992,4.6001,3.91992,17.70996,8.75,35.08008,20.87988,49.58008,2.02002,2.3999,1.35986,8.70996-.31006,12.1001-2.41016,4.88965-6.81982,8.7998-10.45996,13.0498-18.95996,22.22021-43.16992,37.89014-66.6499,54.70996-23.7002,16.97021-45.97998,35.9502-68.58984,54.41992-3.98047,3.25-6.52051,8.29004-8.17041,10.45996,24.04004,7.04004,48.43018,13.62012,72.41016,21.43018,12.19971,3.97998,23.69971,10.14014,35.41992,15.51025,1.25.55957,2.70996,2.43994,2.66992,3.67969-.27002,13.07031.1001,26.02002-8.7998,37.43994-6.08008,7.80029-11.31982,16.66992-15,25.83008-7.43994,18.56982-13.81006,37.56982-21.08008,58.02979-129.41016-54.55957-220.26025-182.59961-220.26025-331.85986,0-37.31006,5.68018-73.29004,16.21045-107.12988,52.53955-74.97021,139.57959-123.97998,238.06982-123.97998,98.81982,0,186.10986,49.33984,238.58008,124.71973Z"/>
    <path class="cls-2" d="M719.79004,497.68018c0,117.16992-69.35986,218.12988-169.27002,264.06006.01025-.1499.01025-.31006.02002-.45996.31982-8.59033,1.27002-17.14014,1.58984-25.72998.83008-23.37012,1.47998-46.75,2.27002-72.18994,9.39014,3.81982,13.28027,6.60986,18.39014,10.81982.5-9.5.93018-18.8501.35986-27.29004-1.98975-29.2998-3.7998-58.6499-7.36963-87.77979-2.12012-17.22021-5.81006-34.65039-11.76025-50.90039-7.18018-19.59961-8.5-38.69971-2.3501-58.16992,5.01025-15.90967,9-31.15967-4.56982-45.04004,9.3501-3.5,18.12012-6.22998,26.40967-10.00977,15.16016-6.91016,29.9502-14.66016,45.07031-21.64014,14.02002-6.46973,28.21973-12.56006,42.47998-18.47998,4.97021-2.06006,10.45996-4.64014,15.5498-4.29004,1.14014.08008,2.27002.18018,3.41016.31006,25.27979,43.08008,39.77002,93.24023,39.77002,146.79004Z"/>
    <path class="cls-1" d="M550.3501,786.74023c-.59033-8.29004-.16016-16.66992.16992-25,.01025-.1499.01025-.31006.02002-.45996.31982-8.59033,1.27002-17.14014,1.58984-25.72998.83008-23.37012,1.47998-46.75,2.27002-72.18994,9.39014,3.81982,13.28027,6.60986,18.39014,10.81982.5-9.5.93018-18.8501.35986-27.29004-1.98975-29.2998-3.7998-58.6499-7.36963-87.77979-2.12012-17.22021-5.81006-34.65039-11.76025-50.90039-7.18018-19.59961-8.5-38.69971-2.3501-58.16992,5.01025-15.90967,9-31.15967-4.56982-45.04004,9.3501-3.5,18.12012-6.22998,26.40967-10.00977,15.16016-6.91016,29.9502-14.66016,45.07031-21.64014,14.02002-6.46973,28.21973-12.56006,42.47998-18.47998,4.97021-2.06006,10.45996-4.64014,15.5498-4.29004,1.14014.08008,2.27002.18018,3.41016.31006,8.47998.9502,16.87012,3.22998,25.3501,4.54004,1.87988.27979,4.92969-.56982,5.91992-1.95996,4.78027-6.83008,14.39014-13.45996.35986-22.58984,8.99023-3.2002,16.25-5.53027,23.28027-8.43018,1.06982-.4502,1.81982-1.6499,2.5498-2.8999.66992-1.16992.20996-2.66992-1-3.27002-.65967-.33008-1.2998-.56006-1.87012-.43018-16.77979,3.78027-33.61963,7.43018-50.27002,11.78027-5.48975,1.42969-10.97998,2.84961-16.46973,4.26953-20.1499,5.23047-40.2998,10.53027-60.12012,16.86035-25.66016,8.19971-50.71973,18.37012-78.31982,17.5-2.37012-.07031-4.70996-.68994-7.06006-1.07031.35986-2.16992,0-5.11963,1.27979-6.32959,1.88037-1.77002,4.91016-3.08008,7.5-3.14014,3.01025-.07031,6.16016,1.14014,9.07031,2.27002,8.62988,3.33008,12.97998-1.14014,15.94971-8.37012,2.03027-4.95996,3.77002-10.06982,6.12012-14.89014.71973-1.5,2.87988-2.83008,4.58008-3.22998,5.12012-1.21973,6.33984-4.87988,2.72998-8.56006-7.27979-7.42969-8.8501-15.73975-4.22021-22.90967,5.49023-8.5,1.7002-15.25-2.54004-19.78027-10.33984-11-21.75-21.54004-37.01953-25.6499-31.23047-8.42969-56.23047,3.08008-78.34033,24.5-8.06982,7.81006-16.18018,16.62012-26.02979,21.32031-16.02002,7.6499-33.07031,14.63965-50.41992,17.69971-28.52051,5.01025-57.04004,3.27002-82.44043-13.72998-1.35986-.91016-2.95996-1.5-4.5-2.24023,3.08008,14.87012,11.77002,25.33008,24.41016,31.49023,12.1001,5.8999,25.18018,9.75977,38.2002,14.6499-20.82031,18.62012-45.66016,25.62012-74.31006,26.07031,18.79004,10.46973,37.6001,9.0498,56.73975,7.38965-24.00977,20.7002-49.75,36.5-83.02979,32.18994,9.93994,16.11035,25.81982,18.83008,42.87988,21.03027-16.93018,17.89014-37.62988,21.47998-62.58008,21.58984,5.51025,2.54004,8.14014,4.11035,11,5,25.6001,7.99023,51.18994,6.62988,76.67041-.58984,15.62988-4.43994,31.25977-8.8999,46.75977-13.74023,8.77979-2.73975,12.35986-.46973,10.92969,8.70996-.59961,3.88037-2.75,7.81006-5.09961,11.06006-9.68018,13.47021-22.47998,22.82031-40.11035,27.6001,15.06006,2.77002,26.69043-2.02979,38.43018-7.85986,24.49023-12.18018,39.22998-34.56006,57.27002-53.5,9.50977-10,18.95996-20.1001,33.03027-23.93018,4.43994-1.20996,6.5-.70996,7.66992,4.6001,3.91992,17.70996,8.75,35.08008,20.87988,49.58008,2.02002,2.3999,1.35986,8.70996-.31006,12.1001-2.41016,4.88965-6.81982,8.7998-10.45996,13.0498-18.95996,22.22021-43.16992,37.89014-66.6499,54.70996-23.7002,16.97021-45.97998,35.9502-68.58984,54.41992-3.98047,3.25-6.52051,8.29004-8.17041,10.45996,24.04004,7.04004,48.43018,13.62012,72.41016,21.43018,12.19971,3.97998,23.69971,10.14014,35.41992,15.51025,1.25.55957,2.70996,2.43994,2.66992,3.67969-.27002,13.07031.1001,26.02002-8.7998,37.43994-6.08008,7.80029-11.31982,16.66992-15,25.83008-7.43994,18.56982-13.81006,37.56982-21.08008,58.02979-129.41016-54.55957-220.26025-182.59961-220.26025-331.85986,0-37.31006,5.68018-73.29004,16.21045-107.12988,45.60986-146.5,182.27979-252.87012,343.77979-252.87012,97.00977,0,185.0498,38.38037,249.79004,100.77002C705.97021,70.55029,578.07031,0,433.68018,0,194.16992,0,0,194.16016,0,433.68018s194.16992,433.68018,433.68018,433.68018c130.14014,0,246.8999-57.32031,326.37988-148.09033-57.29004,45.9502-128.93994,74.74023-207.1499,78.57031-1.47998-2.43018-2.20996-6.02002-2.56006-11.1001ZM521.37988,798.03027c-25.33008-.93994-49.98975-4.51025-73.71973-10.41992-9.14014-2.28027-18.12988-4.90039-26.97021-7.87012-.11963-2.03027.93994-4.59033,2.09033-8.08008,2.10986-6.39014,5.68994-12.35986,8.98975-18.31006,7.73975-13.93994,15.6499-27.79004,23.58008-41.62012,3.31982-5.79004,7.22021-11.27002,10.25-17.19971,4.79004-9.39014,9.52002-18.8501,13.3999-28.64014,3.02002-7.58008,7.81006-12.52002,15.75-13.16992,8.25977-.66992,16.5498,1.87988,18.27002,10.77002,2.77002,14.35986,4.08008,29.04004,5.29004,43.65967,1.7998,21.8501,3.37012,43.74023,4.47998,65.65039.1001,1.83984.18994,3.66992.28027,5.50977.2998,6.25-.79004,12.57031-1.69043,19.72021Z"/>
  </g>
</svg>